<svg width="18" height="18" viewBox="0 0 18 18" fill="none" xmlns="http://www.w3.org/2000/svg">
<path d="M10.6395 2.06641V4.76341C10.6395 5.12866 10.785 5.47966 11.0445 5.73841C11.3047 5.99743 11.6569 6.1428 12.024 6.14266H15.1178" stroke="white" stroke-width="1.5" stroke-linecap="round" stroke-linejoin="round"/>
<path d="M5.73525 5.736H8.184M5.73525 9.00075H12.2648M5.73525 12.2655H12.2648M15.1875 6.42675V12.8528C15.1726 13.2731 15.0747 13.6863 14.8994 14.0686C14.724 14.4509 14.4748 14.7947 14.166 15.0803C13.8569 15.3671 13.4944 15.5903 13.0991 15.737C12.7037 15.8837 12.2834 15.9511 11.862 15.9353H6.1695C5.74555 15.9546 5.32195 15.8901 4.92298 15.7455C4.52401 15.6008 4.15751 15.3788 3.8445 15.0923C3.5327 14.8059 3.28091 14.4605 3.10374 14.0761C2.92658 13.6916 2.82758 13.2758 2.8125 12.8528V5.14725C2.82739 4.72693 2.92532 4.31372 3.10063 3.93142C3.27595 3.54911 3.5252 3.20529 3.834 2.91975C4.14306 2.6329 4.50561 2.40974 4.90094 2.26304C5.29627 2.11633 5.71663 2.04896 6.138 2.06475H10.4235C11.0777 2.06244 11.7092 2.3045 12.1943 2.7435L14.4142 4.785C14.6511 4.98906 14.8424 5.24071 14.9756 5.52356C15.1089 5.80642 15.1811 6.11416 15.1875 6.42675Z" stroke="white" stroke-width="1.5" stroke-linecap="round" stroke-linejoin="round"/>
</svg>
